<?xml version="1.0" standalone="no"?><!DOCTYPE svg PUBLIC "-//W3C//DTD SVG 1.1//EN" "http://www.w3.org/Graphics/SVG/1.1/DTD/svg11.dtd"><svg t="1490232447226" class="icon" style="" viewBox="0 0 1024 1024" version="1.1" xmlns="http://www.w3.org/2000/svg" p-id="2442" xmlns:xlink="http://www.w3.org/1999/xlink" width="200" height="200"><defs><style type="text/css"></style></defs><path d="M511.652588 974.269365c-254.527974 0-461.597053-207.375048-461.597053-462.269365 0-254.893294 207.069079-462.270389 461.597053-462.270389 186.275497 0 353.485777 110.810758 425.964508 282.301528 24.094768 57.004295 36.326347 117.559463 36.326347 179.968861C973.943442 766.894318 766.567371 974.269365 511.652588 974.269365zM511.652588 89.051175c-232.852302 0-422.275489 189.732226-422.275489 422.948825 0 233.217622 189.423187 422.947801 422.275489 422.947801 233.219669 0 422.969291-189.730179 422.969291-422.947801 0-57.118905-11.174504-112.51968-33.215496-164.66634C835.088978 190.434214 682.106748 89.051175 511.652588 89.051175z" p-id="2443" fill="#ffffff"></path><path d="M492.337683 364.468922l39.321564 0 0 295.062156-39.321564 0 0-295.062156Z" p-id="2444" fill="#ffffff"></path><path d="M364.46841 492.339218l295.060109 0 0 39.321564-295.060109 0 0-39.321564Z" p-id="2445" fill="#ffffff"></path></svg>