<?xml version="1.0" standalone="no"?><!DOCTYPE svg PUBLIC "-//W3C//DTD SVG 1.1//EN" "http://www.w3.org/Graphics/SVG/1.1/DTD/svg11.dtd"><svg t="1490232522506" class="icon" style="" viewBox="0 0 1024 1024" version="1.1" xmlns="http://www.w3.org/2000/svg" p-id="6498" xmlns:xlink="http://www.w3.org/1999/xlink" width="200" height="200"><defs><style type="text/css"></style></defs><path d="M807.2 680.8c9.1-51.3 9.3-96.4 0.5-127.1-3.6-32.3-16.4-55.3-38.1-68.2-19.4-11.5-41.7-11.9-57.7-9.5-7.8-20.1-19.7-34.1-35.4-41.9-14.6-7.2-31.3-8.5-49.9-3.9-5.7-21.2-16-35.9-30.6-43.9-12.5-6.8-27.2-8.3-43.8-4.4-2.1 0.5-4.1 1-6.1 1.6l-2-51.9c37.8-27.1 62.7-71.8 62.2-121.8-1-81.4-67.6-146.6-148.9-145.7C376 65 310.8 131.7 311.7 213c0.5 50.4 26.9 95 65.9 121.1l4.4 184.5c-0.8-1.1-1.6-2.2-2.4-3.4-32.5-44.4-64.4-65.7-95-63.1-22.1 1.9-40.7 10.1-53.9 23.9-13.5 14.1-20.7 33.3-20.7 55.5 0 7.6 2.4 20 21.3 49.6 9.9 15.4 21.4 31.1 29.4 41.7 5.9 9.3 85.2 135.5 114.9 258.4l1.2 61.6c0.2 7.7 5.2 14.1 12.1 16.4 1.7 0.6 3.6 0.9 5.5 0.9l335.5-0.1c5.3 0 10.3-2.4 13.6-6.5 3.3-4.1 4.6-9.5 3.6-14.7 0-0.2-3.1-15-4.9-31.9-3.2-30.1 0.5-38 0.7-38.4 31.4-63 53.6-127.9 64.3-187.7zM375.8 260.1v0.4l0.5 22c-16-18.7-25.7-42.8-26-69.3-0.7-60 47.5-109.2 107.5-109.8 60-0.6 109.2 47.5 109.8 107.5 0.3 25.9-10.4 50.6-25.4 69.4l-0.8-20.7c-0.2-45.5-37.3-82.4-82.8-82.4-45.7 0.1-82.9 37.2-82.8 82.9z m335.5 592.6c-3.7 7.4-8.1 21.4-4.2 58.1 0.5 4.9 1.1 9.5 1.7 13.8l-297.3 0.1-0.9-46.3c0-1.3-0.2-2.5-0.5-3.7C378.5 741.3 293.4 608.6 289.8 603c-0.2-0.4-0.5-0.7-0.8-1.1-33.5-44-43.4-65.4-44-70.7 0.1-26.1 15.1-41.8 42.4-44.1 34.4-2.9 80.7 69.8 97.7 105.5 3.6 7.5 11.9 11.5 20 9.6 8.1-1.9 13.7-9.2 13.5-17.6L411 259.9c0.1-26.2 21.4-47.4 47.6-47.4 26.3 0 47.6 21.3 47.6 47.6v0.7l5.7 149.4c0.2 5.6 3.1 10.8 7.7 13.9 4.6 3.2 10.5 3.9 15.8 2 1.6-0.6 3-1.3 5.1-2.3 6.6-3.2 26.7-13.1 38.6-6.6 8.3 4.5 14.2 18.2 16.5 38.4 0.6 5.5 3.8 10.4 8.6 13.2 4.8 2.8 10.6 3.2 15.7 1.1 0.4-0.2 0.8-0.4 1.4-0.6 16.5-7.2 29.8-8.4 39.6-3.5 10 5 17.5 16.9 22.1 35.5 1.2 5 4.6 9.2 9.2 11.5 4.6 2.3 9.9 2.5 14.7 0.6 5-1.9 28.5-7.5 45.2 2.7 11.7 7.1 18.7 21.6 20.9 42.9 0.1 1.1 0.3 2.2 0.7 3.3 3.6 11.9 10.7 46.7-1 112.4-10.3 56.5-31.4 118-61.4 178z" p-id="6499" fill="#ffffff"></path></svg>