<?xml version="1.0" standalone="no"?><!DOCTYPE svg PUBLIC "-//W3C//DTD SVG 1.1//EN" "http://www.w3.org/Graphics/SVG/1.1/DTD/svg11.dtd"><svg t="1490753775258" class="icon" style="" viewBox="0 0 1000 1000" version="1.1" xmlns="http://www.w3.org/2000/svg" p-id="2447" xmlns:xlink="http://www.w3.org/1999/xlink" width="200" height="200"><defs><style type="text/css"></style></defs><path d="M506.4944 45.9978h14.296892879235926c66.0699 1.2951 131.918 17.2113 190.7425 47.4408 93.5574 47.3219 168.8295 129.6451 207.3949 227.152 19.7844 48.9748 29.889 101.6131 31.0652 154.3713v14.331283389861673c-1.3461 72.4729-20.5679 144.6409-56.526 207.6402-31.8677 56.4217-76.5672 105.5504-129.6674 142.6793-70.603 49.8792-156.4054 77.3655-242.7863 78.8645h-14.3318705984288c-86.4339-1.449-172.3222-28.9334-242.9762-78.8475-41.6824-29.1382-78.2192-65.6725-107.3766-107.3552-49.8632-70.5991-77.3507-156.381-78.8498-242.7434V475.14784975786415c1.4661-86.4634 28.9705-172.3651 78.9187-243.0332 41.0359-58.6702 96.7434-107.0494 160.6826-139.2726C375.5658 63.0213 440.9201 47.3099 506.4944 45.9978zM472.0373 83.0777c-100.493 10.0552-196.1461 60.1023-261.8752 136.7343-64.6208 74.0758-100.1512 172.639-97.5958 270.9123 1.2612 66.9176 19.6495 133.4605 53.1691 191.4152 50.9705 89.3624 137.6773 157.5402 236.6533 185.6921 78.7648 22.7826 164.5332 20.687 242.0368-6.1169 67.3301-23.0744 128.1853-64.6012 174.3489-118.7565 45.9267-53.5257 77.3857-119.3861 89.7918-188.844 15.8299-86.4984 2.4205-178.1942-38.3426-256.2053-46.7792-91.2012-129.9752-162.9255-227.1623-195.6094C588.3442 83.5553 529.5357 77.2326 472.0373 83.0777zM490.4076 271.5469c14.6047-0.8005 29.2764-0.2039 43.915-0.3068 3.7156-0.4257 7.2944 2.6062 6.8686 6.4746 0.1699 14.8429 0.1019 29.7019 0.033 44.5448 0.5287 4.0892-2.9661 7.6168-7.0725 7.0882-13.6493 0.1019-27.2996 0.1019-40.9489 0-3.2549 0.2908-6.9196-1.8917-6.8326-5.4873-0.4097-14.791-0.07-29.6159-0.1719-44.4249C485.9764 276.3017 486.8289 272.3483 490.4076 271.5469zM490.4586 397.7833c4.1244-1.3971 8.6575-0.6466 12.9517-0.8174 10.7871 0.2728 21.6252-0.4947 32.3954 0.3747 3.7476 0.7665 4.3612 5.0786 4.1913 8.2644-0.018 94.3031 0 188.6051 0 282.9082 0.5277 3.7325-1.499 8.2994-5.8273 8.0945-11.9294 0.3578-23.8928-0.017-35.8212 0.1699-3.5447-0.1369-8.2977 0.5806-10.2415-3.2528-1.0923-4.432-0.5287-9.0659-0.6306-13.5818 0.018-91.475 0-182.9649 0-274.4389C487.4605 402.709 487.5784 399.2153 490.4586 397.7833z" p-id="2448" fill="#f56a00"></path></svg>