<?xml version="1.0" standalone="no"?><!DOCTYPE svg PUBLIC "-//W3C//DTD SVG 1.1//EN" "http://www.w3.org/Graphics/SVG/1.1/DTD/svg11.dtd"><svg t="1490173248516" class="icon" style="" viewBox="0 0 1024 1024" version="1.1" xmlns="http://www.w3.org/2000/svg" p-id="4059" xmlns:xlink="http://www.w3.org/1999/xlink" width="200" height="200"><defs><style type="text/css"></style></defs><path d="M502.438 586.164l18.617 0c15.414 0 27.925 12.512 27.925 27.926l0 130.328c0 15.414-12.511 27.926-27.945 27.926l-18.617 0c-15.434 0-27.926-12.512-27.926-27.926L474.492 614.09C474.508 598.676 487 586.164 502.438 586.164L502.438 586.164zM502.438 586.164" p-id="4060"></path><path d="M809.637 493.07l0 335.801c0 20.16-16.684 36.563-37.239 36.563L251.09 865.434c-20.535 0-37.235-16.403-37.235-36.563L213.855 493.07 809.637 493.07M865.492 437.219 158 437.219l0 391.652c0 51.051 41.668 92.418 93.09 92.418l521.308 0c51.426 0 93.094-41.367 93.094-92.418L865.492 437.219 865.492 437.219 865.492 437.219zM865.492 437.219" p-id="4061"></path><path d="M791.02 437.219l-55.856 0 0-55.856c0-125.597-104.875-223.418-223.418-223.418-121.465 0-223.418 101.934-223.418 223.418l0 55.856-55.855 0 0-55.856c0-152.277 126.996-279.273 279.273-279.273 150.359 0 279.274 121.82 279.274 279.273L791.02 437.219 791.02 437.219zM791.02 437.219" p-id="4062"></path></svg>