<?xml version="1.0" standalone="no"?><!DOCTYPE svg PUBLIC "-//W3C//DTD SVG 1.1//EN" "http://www.w3.org/Graphics/SVG/1.1/DTD/svg11.dtd"><svg class="icon" width="200px" height="200.00px" viewBox="0 0 1024 1024" version="1.1" xmlns="http://www.w3.org/2000/svg"><path fill="#949494" d="M513.720689 67.051115c-245.973134 0-445.372533 199.408609-445.372533 445.372533 0 245.964948 199.400423 445.372533 445.372533 445.372533 245.980297 0 445.372533-199.407586 445.372533-445.372533C959.094246 266.458701 759.700987 67.051115 513.720689 67.051115zM513.720689 922.166707c-226.297003 0-409.743058-183.471638-409.743058-409.743058 0-226.305189 183.446056-409.743058 409.743058-409.743058 226.28677 0 409.743058 183.437869 409.743058 409.743058C923.464771 738.695069 740.007459 922.166707 513.720689 922.166707zM656.396179 341.267501l-24.980951-24.982998L513.729899 440.207907 395.123594 315.173193l-25.190729 25.190729 111.405299 118.613468L353.386004 458.977389l0 35.629475 142.518924 0 0 89.075735L353.386004 583.682599l0 35.629475 142.518924 0L495.904928 744.018308l35.629475 0L531.534404 619.313098l142.520971 0 0-35.629475L531.535427 583.683623 531.535427 494.607888l142.520971 0 0-35.629475L546.02135 458.978413 656.396179 341.267501z" /></svg>