<?xml version="1.0" standalone="no"?><!DOCTYPE svg PUBLIC "-//W3C//DTD SVG 1.1//EN" "http://www.w3.org/Graphics/SVG/1.1/DTD/svg11.dtd"><svg class="icon" width="200px" height="200.00px" viewBox="0 0 1024 1024" version="1.1" xmlns="http://www.w3.org/2000/svg"><path fill="#1296db" d="M601.5 52C601.5 33.36716 601.427147 19.306148 601.5 10.5 601.556174 3.709874 601.825015 0 601.5 0 838.820105 0 1014 177.085894 1014 416 1014 416.268624 997.671774 415.951358 971.5 416 925.470863 416.085549 848.996944 416.143963 777.5 416 761.131875 415.967042 744.9232 416.043803 729.5 416 720.066515 415.973208 681.756091 416.156321 649.5 416 625.10994 415.8818 601.5 416.051331 601.5 416 601.5 415.400085 601.5 85 601.5 52ZM490.965258 1023.99999C225.059757 1023.99999 9.5 806.986143 9.5 539.263038 9.5 271.539932 225.059757 54.526091 490.965258 54.526091 503.506256 54.526091 525.5 57.5 537.5 59.5L537.5 479.999998 969.5 479.999998C971.317537 497.08484 972.61227 521.632935 972.61227 539.263038 972.61227 806.986144 757.052513 1023.99999 490.965258 1023.99999ZM473.5 544 473.5 118C242.863418 118 73.5 307.206116 73.5 539.475006 73.5 771.743897 260.433425 959.950012 491.070007 959.950012 721.70659 959.950012 908.640015 783.76889 908.640015 551.5L908.640015 544 473.5 544Z" /></svg>