<?xml version="1.0" standalone="no"?><!DOCTYPE svg PUBLIC "-//W3C//DTD SVG 1.1//EN" "http://www.w3.org/Graphics/SVG/1.1/DTD/svg11.dtd"><svg class="icon" width="200px" height="200.00px" viewBox="0 0 1024 1024" version="1.1" xmlns="http://www.w3.org/2000/svg"><path fill="#949494" d="M833.897849 641.483027 376.748085 641.483027c-13.162788 0-25.701358-11.882632-27.39186-25.981744l-49.123814-327.740416-27.785833-160.676469c-5.053086-41.440831-41.391712-73.856102-82.782402-73.856102l-53.569056 0c-15.134699 0-27.443026 12.342096-27.443026 27.499307 0 15.164375 12.308327 27.498284 27.443026 27.498284l36.762275 0c13.637602 0 26.669406 12.294001 28.475542 26.817786l27.836999 161.251567 48.942689 328.97964c5.003967 41.393759 40.931225 83.268472 81.83175 83.268472l473.956545 0c15.134699 0 27.443026-18.119683 27.443026-33.284057C861.341898 660.126642 849.032548 641.483027 833.897849 641.483027L833.897849 641.483027 833.897849 641.483027zM893.68963 165.341722c-14.442944-16.379039-34.336016-28.54922-55.965639-28.54922L353.851609 136.792503c-15.148002 0-27.457352 19.161409-27.457352 34.326806 0 15.164375 12.30935 33.276894 27.457352 33.276894l472.843188 0c5.891174 0 10.897188 2.305509 14.867616 6.826476 5.92699 6.704702 8.945743 17.71036 7.699356 28.057009l-45.463448 223.882c-1.689479 13.884218-14.919804 25.340131-29.462009 25.420973l-356.181165 27.877931c-7.302313 0.534166-13.950733 3.847631-18.726503 9.42772-4.808516 5.538133-7.66354 22.608927-7.138584 29.936823 1.033539 14.303774 9.372461 27.606755 23.666002 27.606755 0.655939 0 1.346671-0.024559 2.018983-0.082888l369.377722-28.836769c40.949644 0 76.809363-31.732725 81.750909-72.248488l45.49517-244.37166C917.883659 210.55753 910.265144 184.084599 893.68963 165.341722L893.68963 165.341722 893.68963 165.341722zM367.409392 859.931271c31.033807 0 56.294121-25.314549 56.294121-56.399521 0-31.110555-25.260314-56.416917-56.294121-56.416917-31.036877 0-56.311517 25.305339-56.311517 56.416917C311.098899 834.622862 336.372515 859.931271 367.409392 859.931271L367.409392 859.931271 367.409392 859.931271zM771.417843 859.931271c31.003108 0 56.276724-25.314549 56.276724-56.398498 0-31.111578-25.258267-56.417941-56.276724-56.417941-31.052227 0-56.32789 25.305339-56.32789 56.417941C715.089953 834.622862 740.365616 859.931271 771.417843 859.931271L771.417843 859.931271 771.417843 859.931271zM771.417843 859.931271" /></svg>