<?xml version="1.0" standalone="no"?><!DOCTYPE svg PUBLIC "-//W3C//DTD SVG 1.1//EN" "http://www.w3.org/Graphics/SVG/1.1/DTD/svg11.dtd"><svg t="1490754683879" class="icon" style="" viewBox="0 0 1024 1024" version="1.1" xmlns="http://www.w3.org/2000/svg" p-id="3327" xmlns:xlink="http://www.w3.org/1999/xlink" width="200" height="200"><defs><style type="text/css"></style></defs><path d="M756.462223 430.512081 756.462223 308.281225c0-135.013997-109.459994-244.463758-244.463758-244.463758-135.004787 0-244.463758 109.449761-244.463758 244.463758 0 11.260461 9.130961 20.370956 20.370956 20.370956s20.37198-9.110495 20.37198-20.370956c0-112.503307 91.216491-203.719798 203.719798-203.719798 112.502283 0 203.718775 91.216491 203.718775 203.719798l0 122.230855L267.535731 430.512081c-45.001937 0-81.487919 36.476773-81.487919 81.487919L186.047812 878.695636c0 45.001937 36.485983 81.487919 81.487919 81.487919L756.462223 960.183556c45.001937 0 81.487919-36.485983 81.487919-81.487919L837.950142 512C837.950142 466.989877 801.464159 430.512081 756.462223 430.512081M797.207206 878.695636c0 22.500457-18.243503 40.74396-40.74396 40.74396L267.535731 919.439596c-22.500457 0-40.74396-18.243503-40.74396-40.74396L226.791771 512c0-22.491247 18.243503-40.742936 40.74396-40.742936L756.462223 471.257064c22.500457 0 40.74396 18.252713 40.74396 40.742936L797.206182 878.695636zM511.999488 593.487919c-45.001937 0-81.487919 36.467563-81.487919 81.487919 0 20.950148 8.096399 39.789215 21.067828 54.233182-0.277316 2.287089-0.695848 4.536316-0.695848 6.883781 0 33.760918 27.353998 61.115939 61.115939 61.115939s61.115939-27.353998 61.115939-61.115939c0-2.347464-0.457418-4.595668-0.696872-6.883781 12.971429-14.424524 21.068851-33.283034 21.068851-54.233182C593.487408 629.955482 557.000402 593.487919 511.999488 593.487919M532.371468 710.089567l0 26.002211c0 11.260461-9.131985 20.370956-20.37198 20.370956s-20.37198-9.110495-20.37198-20.370956l0-26.002211c-12.115945-7.061836-20.37198-20.053732-20.37198-35.113729 0-22.499433 18.243503-40.742936 40.74396-40.742936S552.742425 652.475382 552.742425 674.975838C552.742425 690.036859 544.487414 703.007265 532.371468 710.089567" p-id="3328" fill="#5ebf5e"></path></svg>